<svg xmlns="http://www.w3.org/2000/svg" width="32" height="32">
    <path style="stroke:none;fill-rule:nonzero;fill:#000;fill-opacity:1" d="m2.668 7.027 1.707-1.695 22.293 22.293-1.695 1.707-4.106-4.105c-1.535.507-3.16.773-4.867.773-6.668 0-12.36-4.148-14.668-10a15.69 15.69 0 0 1 4.254-6.055L2.668 7.027M16 12c2.21 0 4 1.79 4 4 0 .465-.078.922-.227 1.332l-5.105-5.105c.41-.149.867-.227 1.332-.227m0-6c6.668 0 12.36 4.148 14.668 10a15.751 15.751 0 0 1-5.336 6.922l-1.89-1.91A13.137 13.137 0 0 0 27.761 16 13.1 13.1 0 0 0 16 8.668a13.91 13.91 0 0 0-4.215.664l-2.05-2.039A15.78 15.78 0 0 1 16 6M4.238 16A13.1 13.1 0 0 0 16 23.332c.922 0 1.828-.094 2.668-.277L15.625 20A4.081 4.081 0 0 1 12 16.375l-4.535-4.547A13.209 13.209 0 0 0 4.238 16Zm0 0"/>
</svg>
