<svg width="29" height="29" viewBox="0 0 29 29" fill="none" xmlns="http://www.w3.org/2000/svg">
<path d="M14.5002 4.83325C15.782 4.83325 17.0114 5.34248 17.9178 6.2489C18.8243 7.15533 19.3335 8.38471 19.3335 9.66659C19.3335 10.9485 18.8243 12.1778 17.9178 13.0843C17.0114 13.9907 15.782 14.4999 14.5002 14.4999C13.2183 14.4999 11.9889 13.9907 11.0825 13.0843C10.1761 12.1778 9.66683 10.9485 9.66683 9.66659C9.66683 8.38471 10.1761 7.15533 11.0825 6.2489C11.9889 5.34248 13.2183 4.83325 14.5002 4.83325ZM14.5002 16.9166C19.841 16.9166 24.1668 19.0795 24.1668 21.7499V24.1666H4.8335V21.7499C4.8335 19.0795 9.15933 16.9166 14.5002 16.9166Z" fill="black"/>
</svg>
