<svg width="25" height="23" viewBox="0 0 25 23" fill="none" xmlns="http://www.w3.org/2000/svg">
<path d="M19.7501 0.625H5.25008V5.45833H19.7501M20.9584 11.5C20.6379 11.5 20.3306 11.3727 20.104 11.1461C19.8774 10.9195 19.7501 10.6121 19.7501 10.2917C19.7501 9.9712 19.8774 9.66385 20.104 9.43725C20.3306 9.21064 20.6379 9.08333 20.9584 9.08333C21.2789 9.08333 21.5862 9.21064 21.8128 9.43725C22.0394 9.66385 22.1667 9.9712 22.1667 10.2917C22.1667 10.6121 22.0394 10.9195 21.8128 11.1461C21.5862 11.3727 21.2789 11.5 20.9584 11.5ZM17.3334 19.9583H7.66675V13.9167H17.3334M20.9584 6.66667H4.04175C3.08034 6.66667 2.15831 7.04858 1.47849 7.7284C0.798667 8.40822 0.416748 9.33026 0.416748 10.2917V17.5417H5.25008V22.375H19.7501V17.5417H24.5834V10.2917C24.5834 9.33026 24.2015 8.40822 23.5217 7.7284C22.8419 7.04858 21.9198 6.66667 20.9584 6.66667Z" fill="#676767"/>
</svg>
