<svg width="29" height="29" viewBox="0 0 29 29" fill="none" xmlns="http://www.w3.org/2000/svg">
<path d="M6.04167 3.625C4.70042 3.625 3.625 4.7125 3.625 6.04167V22.9583C3.625 23.5993 3.87961 24.214 4.33283 24.6672C4.78604 25.1204 5.40073 25.375 6.04167 25.375H22.9583C23.5993 25.375 24.214 25.1204 24.6672 24.6672C25.1204 24.214 25.375 23.5993 25.375 22.9583V20.2033C26.0879 19.7804 26.5833 19.0192 26.5833 18.125V10.875C26.5833 9.98083 26.0879 9.21958 25.375 8.79667V6.04167C25.375 5.40073 25.1204 4.78604 24.6672 4.33283C24.214 3.87961 23.5993 3.625 22.9583 3.625H6.04167ZM6.04167 6.04167H22.9583V8.45833H15.7083C15.0674 8.45833 14.4527 8.71295 13.9995 9.16616C13.5463 9.61937 13.2917 10.2341 13.2917 10.875V18.125C13.2917 18.7659 13.5463 19.3806 13.9995 19.8338C14.4527 20.2871 15.0674 20.5417 15.7083 20.5417H22.9583V22.9583H6.04167V6.04167ZM15.7083 10.875H24.1667V18.125H15.7083V10.875ZM19.3333 12.6875C18.8526 12.6875 18.3916 12.8785 18.0517 13.2184C17.7118 13.5583 17.5208 14.0193 17.5208 14.5C17.5208 14.9807 17.7118 15.4417 18.0517 15.7816C18.3916 16.1215 18.8526 16.3125 19.3333 16.3125C19.814 16.3125 20.2751 16.1215 20.615 15.7816C20.9549 15.4417 21.1458 14.9807 21.1458 14.5C21.1458 14.0193 20.9549 13.5583 20.615 13.2184C20.2751 12.8785 19.814 12.6875 19.3333 12.6875Z" fill="#485847"/>
</svg>
