<svg xmlns="http://www.w3.org/2000/svg" width="32" height="32">
    <path style="stroke:none;fill-rule:nonzero;fill:#000;fill-opacity:1" d="M16 2.668C8.637 2.668 2.668 8.637 2.668 16S8.637 29.332 16 29.332 29.332 23.363 29.332 16 23.363 2.668 16 2.668M9.426 24.375C10 23.172 13.492 22 16 22s6 1.172 6.574 2.375A10.538 10.538 0 0 1 16 26.668c-2.48 0-4.762-.855-6.574-2.293m15.054-1.934c-1.906-2.32-6.535-3.109-8.48-3.109-1.945 0-6.574.79-8.48 3.11A10.582 10.582 0 0 1 5.332 16c0-5.879 4.79-10.668 10.668-10.668 5.879 0 10.668 4.79 10.668 10.668 0 2.426-.828 4.668-2.188 6.441M16 8a4.655 4.655 0 0 0-4.668 4.668A4.655 4.655 0 0 0 16 17.332a4.655 4.655 0 0 0 4.668-4.664A4.655 4.655 0 0 0 16 8m0 6.668a1.999 1.999 0 1 1 0-4 1.999 1.999 0 1 1 0 4Zm0 0"/>
</svg>
