<svg width="29" height="29" viewBox="0 0 29 29" fill="none" xmlns="http://www.w3.org/2000/svg">
<g clip-path="url(#clip0_50_48)">
<path d="M14.2584 13.1708C11.5155 12.4579 10.6334 11.7208 10.6334 10.5729C10.6334 9.25583 11.8538 8.3375 13.8959 8.3375C15.6117 8.3375 16.4697 8.99 16.7838 10.0292C16.9288 10.5125 17.3276 10.875 17.8351 10.875H18.1976C18.9951 10.875 19.563 10.0896 19.2851 9.34042C18.7776 7.91458 17.5934 6.73042 15.7084 6.27125V5.4375C15.7084 4.43458 14.8988 3.625 13.8959 3.625C12.893 3.625 12.0834 4.43458 12.0834 5.4375V6.235C9.73925 6.7425 7.85425 8.265 7.85425 10.5971C7.85425 13.3883 10.1622 14.7779 13.5334 15.5875C16.5542 16.3125 17.1584 17.3758 17.1584 18.4996C17.1584 19.3333 16.5663 20.6625 13.8959 20.6625C11.9022 20.6625 10.8751 19.9496 10.4763 18.9346C10.2951 18.4633 9.88425 18.125 9.38883 18.125H9.0505C8.24091 18.125 7.673 18.9467 7.97508 19.6958C8.66383 21.3754 10.2709 22.3663 12.0834 22.7529V23.5625C12.0834 24.5654 12.893 25.375 13.8959 25.375C14.8988 25.375 15.7084 24.5654 15.7084 23.5625V22.7771C18.0647 22.33 19.9376 20.9646 19.9376 18.4875C19.9376 15.0558 17.0013 13.8837 14.2584 13.1708Z" fill="#485847"/>
</g>
<defs>
<clipPath id="clip0_50_48">
<rect width="29" height="29" fill="white"/>
</clipPath>
</defs>
</svg>
