<svg width="27" height="26" viewBox="0 0 27 26" fill="none" xmlns="http://www.w3.org/2000/svg">
<path d="M3.625 0V3.625H0V6.04167H3.625V9.66667H6.04167V6.04167H9.66667V3.625H6.04167V0H3.625ZM12.0833 3.625V6.04167H22.9583V8.45833H15.7083C14.3792 8.45833 13.2917 9.54583 13.2917 10.875V18.125C13.2917 19.4542 14.3792 20.5417 15.7083 20.5417H22.9583V22.9583H6.04167V12.0833H3.625V22.9583C3.625 24.2875 4.70042 25.375 6.04167 25.375H22.9583C24.2875 25.375 25.375 24.2875 25.375 22.9583V20.2033C26.0879 19.7804 26.5833 19.0192 26.5833 18.125V10.875C26.5833 9.98083 26.0879 9.21958 25.375 8.79667V6.04167C25.375 4.7125 24.2875 3.625 22.9583 3.625H12.0833ZM15.7083 10.875H24.1667V18.125H15.7083V10.875ZM19.3333 12.6875C18.8526 12.6875 18.3916 12.8785 18.0517 13.2184C17.7118 13.5583 17.5208 14.0193 17.5208 14.5C17.5208 14.9807 17.7118 15.4417 18.0517 15.7816C18.3916 16.1215 18.8526 16.3125 19.3333 16.3125C19.814 16.3125 20.2751 16.1215 20.615 15.7816C20.9549 15.4417 21.1458 14.9807 21.1458 14.5C21.1458 14.0193 20.9549 13.5583 20.615 13.2184C20.2751 12.8785 19.814 12.6875 19.3333 12.6875Z" fill="#485847"/>
</svg>
