<svg width="32" height="32" viewBox="0 0 32 32" fill="none" xmlns="http://www.w3.org/2000/svg">
<path d="M12.668 4C13.8061 4.00013 14.933 4.22445 15.9843 4.66016C17.0357 5.09586 17.9909 5.73441 18.7955 6.53933C19.6 7.34426 20.2382 8.29979 20.6734 9.35136C21.1086 10.4029 21.3324 11.5299 21.332 12.668C21.3314 14.7352 20.5947 16.7346 19.254 18.308L19.614 18.668H20.668L27.332 25.332L25.332 27.332L18.668 20.668V19.613L18.308 19.253C16.7347 20.5941 14.7353 21.3311 12.668 21.332C11.5299 21.3324 10.4029 21.1086 9.35136 20.6734C8.29979 20.2382 7.34426 19.6 6.53933 18.7955C5.73441 17.9909 5.09586 17.0357 4.66016 15.9843C4.22445 14.933 4.00013 13.8061 4 12.668C3.99974 11.5296 4.22376 10.4024 4.65928 9.35059C5.09479 8.29882 5.73326 7.34316 6.53821 6.53821C7.34316 5.73326 8.29882 5.09479 9.35059 4.65928C10.4024 4.22376 11.5296 3.99974 12.668 4ZM12.668 6.668C9.332 6.668 6.668 9.332 6.668 12.668C6.668 16 9.332 18.668 12.668 18.668C16 18.668 18.668 16 18.668 12.668C18.668 9.332 16 6.668 12.668 6.668Z" fill="#676767"/>
</svg>
