<svg width="35" height="35" viewBox="0 0 35 35" fill="none" xmlns="http://www.w3.org/2000/svg">
<path d="M7.2625 0.796193C7.93188 0.742235 27.4633 0.76411 28.0088 0.819527C29.61 0.963902 31.1077 1.67557 32.2306 2.82619C33.4556 4.05557 34.1104 5.52557 34.2475 7.3514C34.284 7.84724 34.2985 10.7829 34.284 15.2847C34.2577 23.0781 34.2738 22.7339 33.9179 23.8145C33.4571 25.1547 32.6156 26.3331 31.4971 27.2037C30.9473 27.596 30.3508 27.9197 29.7223 28.1677C28.646 28.557 28.8342 28.5439 23.8 28.5804L19.2208 28.6124L14.2115 31.1062C11.4552 32.4785 9.19188 33.5999 9.18021 33.5999C9.16854 33.5999 9.15834 32.4712 9.15834 31.0916V28.5833H8.15209C6.70396 28.5833 5.99813 28.4535 4.94667 27.9985C2.85104 27.0885 1.27167 25.0585 0.905629 22.8039C0.774379 21.9887 0.771462 7.33099 0.90417 6.57411C1.3475 3.96078 3.23604 1.82432 5.775 1.06161C6.26209 0.928902 6.75938 0.839943 7.2625 0.796193ZM28.175 3.6414C27.6281 3.52474 7.38646 3.52765 6.85417 3.64432C5.38709 3.96807 4.14313 5.14932 3.72167 6.61786L3.5875 7.08744V14.6708C3.5875 21.7656 3.57584 22.4072 3.78292 22.9687C3.815 23.0533 3.85146 23.1379 3.89375 23.2414C4.28021 24.1922 5.20188 25.1212 6.13084 25.4974C6.85854 25.792 6.94604 25.7993 9.52292 25.8256L11.9583 25.8504V27.4793C11.9583 28.3747 11.9671 29.1083 11.9788 29.1083C13.0885 28.5687 14.1954 28.0247 15.2994 27.4749L18.5996 25.8416L23.0227 25.8402C25.4552 25.8387 27.6369 25.8139 27.8702 25.7833C28.8094 25.6608 29.5356 25.2962 30.2444 24.5874C30.7358 24.1208 31.1019 23.5404 31.3119 22.8958L31.4708 22.4291L31.4869 14.9041C31.5015 8.18849 31.4942 7.32953 31.4096 6.91536C31.236 6.05057 30.8773 5.39724 30.2269 4.75703C29.6013 4.14307 29.0063 3.81932 28.175 3.6414ZM16.1 13.2999V9.09994H18.9V13.2999H23.0417V16.0999H18.9V20.2416H16.1V16.0999H11.9583V13.2999H16.1Z" fill="#485847" fill-opacity="0.8"/>
</svg>
